<svg xmlns="http://www.w3.org/2000/svg" xmlns:xlink="http://www.w3.org/1999/xlink" width="400" zoomAndPan="magnify" viewBox="0 0 300 149.999998" height="200" preserveAspectRatio="xMidYMid meet" version="1.0"><defs><g/><clipPath id="fe6eebb7e8"><rect x="0" width="256" y="0" height="65"/></clipPath><clipPath id="5a3b67f043"><path d="M 4 38 L 37 38 L 37 79 L 4 79 Z M 4 38 " clip-rule="nonzero"/></clipPath><clipPath id="7649307d2d"><path d="M 43.695312 45.792969 L 20.199219 82.019531 L -1.726562 67.800781 L 21.769531 31.570312 Z M 43.695312 45.792969 " clip-rule="nonzero"/></clipPath><clipPath id="64bf7ca7a0"><path d="M 31.84375 50.621094 L 14.070312 78.023438 L 4.425781 71.765625 L 22.199219 44.367188 L 14.554688 42.695312 L 32.734375 38.683594 L 36.480469 56.917969 Z M 31.84375 50.621094 " clip-rule="nonzero"/></clipPath><clipPath id="ce77c7e609"><path d="M 0.320312 0.640625 L 32.71875 0.640625 L 32.71875 40.238281 L 0.320312 40.238281 Z M 0.320312 0.640625 " clip-rule="nonzero"/></clipPath><clipPath id="86020ee243"><path d="M 39.695312 7.792969 L 16.199219 44.019531 L -5.726562 29.800781 L 17.769531 -6.429688 Z M 39.695312 7.792969 " clip-rule="nonzero"/></clipPath><clipPath id="9e8e9210a1"><path d="M 27.84375 12.621094 L 10.070312 40.023438 L 0.425781 33.765625 L 18.199219 6.367188 L 10.554688 4.695312 L 28.734375 0.683594 L 32.480469 18.917969 Z M 27.84375 12.621094 " clip-rule="nonzero"/></clipPath><clipPath id="a751354963"><rect x="0" width="33" y="0" height="41"/></clipPath><clipPath id="23d363f18c"><path d="M 0 8 L 46 8 L 46 59 L 0 59 Z M 0 8 " clip-rule="nonzero"/></clipPath><clipPath id="ef6ebc535d"><rect x="0" width="54" y="0" height="69"/></clipPath></defs><g transform="matrix(1, 0, 0, 1, 42, 42)"><g clip-path="url(#fe6eebb7e8)"><g fill="#000000" fill-opacity="1"><g transform="translate(0.0610584, 50.932778)"><g><path d="M 4.390625 10.21875 L 4.390625 -25.203125 L 8.109375 -25.203125 L 8.109375 -21.4375 L 8.59375 -21.34375 C 10.46875 -24.238281 13.21875 -25.6875 16.84375 -25.6875 C 18.945312 -25.6875 20.78125 -25.203125 22.34375 -24.234375 C 23.914062 -23.273438 25.132812 -21.816406 26 -19.859375 C 26.875 -17.910156 27.3125 -15.488281 27.3125 -12.59375 C 27.3125 -9.707031 26.851562 -7.289062 25.9375 -5.34375 C 25.019531 -3.394531 23.753906 -1.9375 22.140625 -0.96875 C 20.523438 0 18.664062 0.484375 16.5625 0.484375 C 14.851562 0.484375 13.335938 0.1875 12.015625 -0.40625 C 10.691406 -1 9.550781 -1.976562 8.59375 -3.34375 L 8.109375 -3.25 L 8.109375 10.21875 Z M 15.75 -2.859375 C 20.851562 -2.859375 23.40625 -6.101562 23.40625 -12.59375 C 23.40625 -19.09375 20.851562 -22.34375 15.75 -22.34375 C 14.25 -22.34375 12.925781 -22 11.78125 -21.3125 C 10.644531 -20.632812 9.75 -19.566406 9.09375 -18.109375 C 8.4375 -16.648438 8.109375 -14.8125 8.109375 -12.59375 C 8.109375 -10.382812 8.4375 -8.550781 9.09375 -7.09375 C 9.75 -5.632812 10.644531 -4.5625 11.78125 -3.875 C 12.925781 -3.195312 14.25 -2.859375 15.75 -2.859375 Z M 15.75 -2.859375 "/></g></g></g><g fill="#000000" fill-opacity="1"><g transform="translate(30.133272, 50.932778)"><g><path d="M 24.015625 -11.75 L 6.6875 -11.75 C 6.800781 -8.6875 7.535156 -6.4375 8.890625 -5 C 10.253906 -3.570312 12.128906 -2.859375 14.515625 -2.859375 C 16.304688 -2.859375 17.75 -3.175781 18.84375 -3.8125 C 19.945312 -4.457031 20.8125 -5.460938 21.4375 -6.828125 L 21.90625 -6.828125 L 24.328125 -5.390625 C 23.597656 -3.566406 22.429688 -2.128906 20.828125 -1.078125 C 19.222656 -0.0351562 17.117188 0.484375 14.515625 0.484375 C 12.078125 0.484375 9.976562 0.00390625 8.21875 -0.953125 C 6.46875 -1.921875 5.117188 -3.378906 4.171875 -5.328125 C 3.234375 -7.273438 2.765625 -9.695312 2.765625 -12.59375 C 2.765625 -15.457031 3.265625 -17.867188 4.265625 -19.828125 C 5.265625 -21.796875 6.625 -23.265625 8.34375 -24.234375 C 10.070312 -25.203125 12.050781 -25.6875 14.28125 -25.6875 C 17.507812 -25.6875 20.03125 -24.773438 21.84375 -22.953125 C 23.65625 -21.128906 24.570312 -18.429688 24.59375 -14.859375 C 24.59375 -13.453125 24.5625 -12.503906 24.5 -12.015625 Z M 20.90625 -14.859375 C 20.84375 -17.535156 20.25 -19.484375 19.125 -20.703125 C 18 -21.921875 16.382812 -22.53125 14.28125 -22.53125 C 12.070312 -22.53125 10.335938 -21.914062 9.078125 -20.6875 C 7.828125 -19.457031 7.0625 -17.515625 6.78125 -14.859375 Z M 20.90625 -14.859375 "/></g></g></g><g fill="#000000" fill-opacity="1"><g transform="translate(57.006314, 50.932778)"><g><path d="M 4.390625 0 L 4.390625 -25.203125 L 7.921875 -25.203125 L 7.921875 -21.25 L 8.40625 -21.140625 C 9.25 -22.617188 10.320312 -23.742188 11.625 -24.515625 C 12.925781 -25.296875 14.515625 -25.6875 16.390625 -25.6875 C 19.421875 -25.6875 21.613281 -24.910156 22.96875 -23.359375 C 24.332031 -21.816406 25.015625 -19.4375 25.015625 -16.21875 L 25.015625 0 L 21.296875 0 L 21.296875 -16.125 C 21.296875 -17.65625 21.097656 -18.878906 20.703125 -19.796875 C 20.316406 -20.722656 19.71875 -21.394531 18.90625 -21.8125 C 18.09375 -22.226562 17.023438 -22.4375 15.703125 -22.4375 C 13.429688 -22.4375 11.597656 -21.6875 10.203125 -20.1875 C 8.804688 -18.6875 8.109375 -16.269531 8.109375 -12.9375 L 8.109375 0 Z M 4.390625 0 "/></g></g></g><g fill="#000000" fill-opacity="1"><g transform="translate(86.02871, 50.932778)"><g><path d="M 3.640625 10.21875 L 3.640625 -25.203125 L 9.96875 -25.203125 L 9.96875 -21.90625 L 10.4375 -21.828125 C 11.1875 -23.097656 12.1875 -24.054688 13.4375 -24.703125 C 14.6875 -25.359375 16.148438 -25.6875 17.828125 -25.6875 C 19.847656 -25.6875 21.613281 -25.203125 23.125 -24.234375 C 24.644531 -23.273438 25.828125 -21.816406 26.671875 -19.859375 C 27.523438 -17.910156 27.953125 -15.488281 27.953125 -12.59375 C 27.953125 -9.707031 27.503906 -7.289062 26.609375 -5.34375 C 25.710938 -3.394531 24.472656 -1.9375 22.890625 -0.96875 C 21.304688 0 19.476562 0.484375 17.40625 0.484375 C 15.84375 0.484375 14.488281 0.222656 13.34375 -0.296875 C 12.195312 -0.828125 11.226562 -1.648438 10.4375 -2.765625 L 9.96875 -2.671875 L 9.96875 10.21875 Z M 15.65625 -4.890625 C 17.539062 -4.890625 18.96875 -5.503906 19.9375 -6.734375 C 20.914062 -7.972656 21.40625 -9.925781 21.40625 -12.59375 C 21.40625 -15.257812 20.914062 -17.210938 19.9375 -18.453125 C 18.96875 -19.691406 17.539062 -20.3125 15.65625 -20.3125 C 13.882812 -20.3125 12.476562 -19.671875 11.4375 -18.390625 C 10.40625 -17.109375 9.890625 -15.175781 9.890625 -12.59375 C 9.890625 -10.019531 10.40625 -8.09375 11.4375 -6.8125 C 12.476562 -5.53125 13.882812 -4.890625 15.65625 -4.890625 Z M 15.65625 -4.890625 "/></g></g></g><g fill="#000000" fill-opacity="1"><g transform="translate(116.215185, 50.932778)"><g><path d="M 14.640625 0.484375 C 12.171875 0.484375 10.003906 -0.0195312 8.140625 -1.03125 C 6.273438 -2.050781 4.828125 -3.539062 3.796875 -5.5 C 2.773438 -7.457031 2.265625 -9.820312 2.265625 -12.59375 C 2.265625 -15.363281 2.773438 -17.726562 3.796875 -19.6875 C 4.828125 -21.65625 6.273438 -23.144531 8.140625 -24.15625 C 10.003906 -25.175781 12.171875 -25.6875 14.640625 -25.6875 C 17.109375 -25.6875 19.273438 -25.175781 21.140625 -24.15625 C 23.015625 -23.144531 24.46875 -21.65625 25.5 -19.6875 C 26.53125 -17.726562 27.046875 -15.363281 27.046875 -12.59375 C 27.046875 -9.820312 26.53125 -7.457031 25.5 -5.5 C 24.46875 -3.539062 23.015625 -2.050781 21.140625 -1.03125 C 19.273438 -0.0195312 17.109375 0.484375 14.640625 0.484375 Z M 14.640625 -4.890625 C 18.554688 -4.890625 20.515625 -7.457031 20.515625 -12.59375 C 20.515625 -15.257812 20.007812 -17.210938 19 -18.453125 C 18 -19.691406 16.546875 -20.3125 14.640625 -20.3125 C 10.734375 -20.3125 8.78125 -17.738281 8.78125 -12.59375 C 8.78125 -7.457031 10.734375 -4.890625 14.640625 -4.890625 Z M 14.640625 -4.890625 "/></g></g></g><g fill="#000000" fill-opacity="1"><g transform="translate(145.510457, 50.932778)"><g><path d="M 6.78125 -28.21875 C 5.644531 -28.21875 4.71875 -28.5625 4 -29.25 C 3.28125 -29.945312 2.921875 -30.84375 2.921875 -31.9375 C 2.921875 -33.019531 3.28125 -33.90625 4 -34.59375 C 4.71875 -35.289062 5.644531 -35.640625 6.78125 -35.640625 C 7.539062 -35.640625 8.21875 -35.476562 8.8125 -35.15625 C 9.414062 -34.84375 9.878906 -34.40625 10.203125 -33.84375 C 10.523438 -33.289062 10.6875 -32.65625 10.6875 -31.9375 C 10.6875 -31.226562 10.523438 -30.585938 10.203125 -30.015625 C 9.878906 -29.453125 9.414062 -29.007812 8.8125 -28.6875 C 8.21875 -28.375 7.539062 -28.21875 6.78125 -28.21875 Z M 3.640625 0 L 3.640625 -25.203125 L 9.96875 -25.203125 L 9.96875 0 Z M 3.640625 0 "/></g></g></g><g fill="#000000" fill-opacity="1"><g transform="translate(159.084085, 50.932778)"><g><path d="M 3.640625 0 L 3.640625 -25.203125 L 9.71875 -25.203125 L 9.71875 -21.5 L 10.1875 -21.390625 C 11.757812 -24.253906 14.304688 -25.6875 17.828125 -25.6875 C 20.734375 -25.6875 22.867188 -24.894531 24.234375 -23.3125 C 25.597656 -21.726562 26.28125 -19.421875 26.28125 -16.390625 L 26.28125 0 L 19.953125 0 L 19.953125 -15.609375 C 19.953125 -17.285156 19.613281 -18.492188 18.9375 -19.234375 C 18.269531 -19.972656 17.195312 -20.34375 15.71875 -20.34375 C 13.90625 -20.34375 12.492188 -19.753906 11.484375 -18.578125 C 10.472656 -17.398438 9.96875 -15.554688 9.96875 -13.046875 L 9.96875 0 Z M 3.640625 0 "/></g></g></g><g fill="#000000" fill-opacity="1"><g transform="translate(188.42506, 50.932778)"><g><path d="M 17.390625 -6.015625 L 19.03125 -1.328125 C 18.34375 -0.765625 17.476562 -0.320312 16.4375 0 C 15.40625 0.320312 14.238281 0.484375 12.9375 0.484375 C 10.207031 0.484375 8.132812 -0.253906 6.71875 -1.734375 C 5.300781 -3.222656 4.59375 -5.382812 4.59375 -8.21875 L 4.59375 -20.203125 L 0.75 -20.203125 L 0.75 -25.21875 L 4.59375 -25.21875 L 4.59375 -30.140625 L 10.921875 -31.171875 L 10.921875 -25.21875 L 18.078125 -25.21875 L 18.078125 -20.203125 L 10.921875 -20.203125 L 10.921875 -8.6875 C 10.921875 -7.4375 11.175781 -6.523438 11.6875 -5.953125 C 12.207031 -5.378906 12.96875 -5.09375 13.96875 -5.09375 C 15.09375 -5.09375 16.070312 -5.398438 16.90625 -6.015625 Z M 17.390625 -6.015625 "/></g></g></g><g fill="#000000" fill-opacity="1"><g transform="translate(207.711494, 50.932778)"><g><path d="M 24.90625 -11.171875 L 8.703125 -11.171875 C 8.890625 -8.984375 9.515625 -7.390625 10.578125 -6.390625 C 11.640625 -5.390625 13.09375 -4.890625 14.9375 -4.890625 C 16.382812 -4.890625 17.554688 -5.160156 18.453125 -5.703125 C 19.359375 -6.242188 20.085938 -7.0625 20.640625 -8.15625 L 21.109375 -8.15625 L 25.3125 -5.46875 C 24.488281 -3.695312 23.25 -2.257812 21.59375 -1.15625 C 19.9375 -0.0625 17.71875 0.484375 14.9375 0.484375 C 12.332031 0.484375 10.082031 -0.0078125 8.1875 -1 C 6.289062 -1.988281 4.828125 -3.460938 3.796875 -5.421875 C 2.773438 -7.378906 2.265625 -9.769531 2.265625 -12.59375 C 2.265625 -15.457031 2.800781 -17.867188 3.875 -19.828125 C 4.957031 -21.796875 6.421875 -23.265625 8.265625 -24.234375 C 10.109375 -25.203125 12.179688 -25.6875 14.484375 -25.6875 C 18.046875 -25.6875 20.773438 -24.738281 22.671875 -22.84375 C 24.578125 -20.957031 25.53125 -18.1875 25.53125 -14.53125 C 25.53125 -13.207031 25.484375 -12.179688 25.390625 -11.453125 Z M 19.46875 -15.265625 C 19.40625 -17.179688 18.957031 -18.578125 18.125 -19.453125 C 17.300781 -20.328125 16.085938 -20.765625 14.484375 -20.765625 C 11.285156 -20.765625 9.40625 -18.929688 8.84375 -15.265625 Z M 19.46875 -15.265625 "/></g></g></g><g fill="#000000" fill-opacity="1"><g transform="translate(235.11012, 50.932778)"><g><path d="M 3.640625 0 L 3.640625 -25.203125 L 9.78125 -25.203125 L 9.78125 -21.453125 L 10.265625 -21.359375 C 10.867188 -22.765625 11.664062 -23.796875 12.65625 -24.453125 C 13.644531 -25.109375 14.847656 -25.4375 16.265625 -25.4375 C 17.703125 -25.4375 18.789062 -25.191406 19.53125 -24.703125 L 18.46875 -19.234375 L 17.984375 -19.140625 C 17.566406 -19.316406 17.164062 -19.441406 16.78125 -19.515625 C 16.40625 -19.585938 15.945312 -19.625 15.40625 -19.625 C 13.632812 -19.625 12.285156 -19.003906 11.359375 -17.765625 C 10.429688 -16.523438 9.96875 -14.535156 9.96875 -11.796875 L 9.96875 0 Z M 3.640625 0 "/></g></g></g></g></g><g clip-path="url(#5a3b67f043)"><g clip-path="url(#7649307d2d)"><g clip-path="url(#64bf7ca7a0)"><g transform="matrix(1, 0, 0, 1, 4, 38)"><g clip-path="url(#a751354963)"><g clip-path="url(#ce77c7e609)"><g clip-path="url(#86020ee243)"><g clip-path="url(#9e8e9210a1)"><path fill="#000000" d="M 39.695312 7.792969 L 16.199219 44.019531 L -5.726562 29.800781 L 17.769531 -6.429688 Z M 39.695312 7.792969 " fill-opacity="1" fill-rule="nonzero"/></g></g></g></g></g></g></g></g><g transform="matrix(1, 0, 0, 1, 0, 48)"><g clip-path="url(#ef6ebc535d)"><g clip-path="url(#23d363f18c)"><g fill="#000000" fill-opacity="1"><g transform="translate(-6.508366, 35.666298)"><g><path d="M 37.015625 -16.671875 C 41.859375 -13.265625 44.734375 -9.394531 45.640625 -5.0625 C 46.554688 -0.726562 45.351562 3.800781 42.03125 8.53125 C 38.695312 13.269531 34.835938 15.945312 30.453125 16.5625 C 26.078125 17.1875 21.46875 15.796875 16.625 12.390625 C 11.78125 8.992188 8.910156 5.144531 8.015625 0.84375 C 7.128906 -3.445312 8.359375 -7.976562 11.703125 -12.75 C 15.035156 -17.5 18.875 -20.1875 23.21875 -20.8125 C 27.570312 -21.445312 32.171875 -20.066406 37.015625 -16.671875 Z M 32.296875 -9.921875 C 30.367188 -11.265625 28.488281 -11.707031 26.65625 -11.25 C 24.832031 -10.789062 23.222656 -9.566406 21.828125 -7.578125 L 20 -4.96875 C 18.601562 -2.988281 17.992188 -1.054688 18.171875 0.828125 C 18.359375 2.710938 19.414062 4.328125 21.34375 5.671875 C 23.28125 7.035156 25.171875 7.484375 27.015625 7.015625 C 28.859375 6.554688 30.476562 5.335938 31.875 3.359375 L 33.703125 0.75 C 35.097656 -1.238281 35.695312 -3.171875 35.5 -5.046875 C 35.300781 -6.929688 34.234375 -8.554688 32.296875 -9.921875 Z M 32.296875 -9.921875 "/></g></g></g></g></g></g></svg>