<svg xmlns="http://www.w3.org/2000/svg" xmlns:xlink="http://www.w3.org/1999/xlink" width="400" zoomAndPan="magnify" viewBox="0 0 300 149.999998" height="200" preserveAspectRatio="xMidYMid meet" version="1.0"><defs><g/><clipPath id="6e1825a895"><rect x="0" width="250" y="0" height="63"/></clipPath><clipPath id="784a18fdfe"><path d="M 3 53 L 43 53 L 43 101 L 3 101 Z M 3 53 " clip-rule="nonzero"/></clipPath><clipPath id="31b71539a1"><path d="M 50.980469 62.535156 L 22.96875 105.726562 L -3.738281 88.402344 L 24.273438 45.214844 Z M 50.980469 62.535156 " clip-rule="nonzero"/></clipPath><clipPath id="cdf7cbfc65"><path d="M 36.539062 68.417969 L 15.550781 100.78125 L 3.804688 93.164062 L 24.792969 60.796875 L 15.484375 58.765625 L 37.625 53.875 L 42.191406 76.085938 Z M 36.539062 68.417969 " clip-rule="nonzero"/></clipPath><clipPath id="c9ab8fe00f"><path d="M 0.601562 0.761719 L 39.238281 0.761719 L 39.238281 47.800781 L 0.601562 47.800781 Z M 0.601562 0.761719 " clip-rule="nonzero"/></clipPath><clipPath id="f908a489f6"><path d="M 47.980469 9.535156 L 19.96875 52.726562 L -6.738281 35.402344 L 21.273438 -7.785156 Z M 47.980469 9.535156 " clip-rule="nonzero"/></clipPath><clipPath id="f628f35f09"><path d="M 33.539062 15.417969 L 12.550781 47.78125 L 0.804688 40.164062 L 21.792969 7.796875 L 12.484375 5.765625 L 34.625 0.875 L 39.191406 23.085938 Z M 33.539062 15.417969 " clip-rule="nonzero"/></clipPath><clipPath id="02d9116fd9"><rect x="0" width="40" y="0" height="48"/></clipPath><clipPath id="697653eb39"><path d="M 0 10 L 55 10 L 55 72 L 0 72 Z M 0 10 " clip-rule="nonzero"/></clipPath><clipPath id="7396f6f5a7"><rect x="0" width="63" y="0" height="84"/></clipPath></defs><g transform="matrix(1, 0, 0, 1, 50, 73)"><g clip-path="url(#6e1825a895)"><g fill="#020202" fill-opacity="1"><g transform="translate(0.986054, 46.558756)"><g><path d="M 7.578125 -3.6875 C 9.546875 -0.960938 12.476562 0.605469 15.8125 0.605469 C 22.230469 0.605469 26.675781 -4.34375 26.675781 -12.226562 C 26.675781 -20.15625 22.230469 -25.007812 15.8125 -25.007812 C 12.378906 -25.007812 9.347656 -23.238281 7.578125 -20.765625 L 7.578125 -24.402344 L 3.789062 -24.402344 L 3.789062 9.296875 L 7.578125 9.296875 Z M 22.683594 -12.226562 C 22.683594 -6.820312 19.753906 -2.777344 14.851562 -2.777344 C 11.871094 -2.777344 8.890625 -4.597656 7.578125 -6.71875 L 7.578125 -17.734375 C 8.890625 -19.855469 11.871094 -21.621094 14.851562 -21.621094 C 19.753906 -21.621094 22.683594 -17.632812 22.683594 -12.226562 Z M 22.683594 -12.226562 "/></g></g></g><g fill="#020202" fill-opacity="1"><g transform="translate(29.982481, 46.558756)"><g><path d="M 2.375 -12.226562 C 2.375 -4.597656 7.578125 0.605469 14.800781 0.605469 C 18.792969 0.605469 22.078125 -0.707031 24.503906 -3.132812 L 22.683594 -5.609375 C 20.765625 -3.636719 17.933594 -2.527344 15.15625 -2.527344 C 9.902344 -2.527344 6.667969 -6.367188 6.367188 -10.964844 L 26.117188 -10.964844 L 26.117188 -11.921875 C 26.117188 -19.25 21.773438 -25.007812 14.398438 -25.007812 C 7.425781 -25.007812 2.375 -19.296875 2.375 -12.226562 Z M 14.347656 -21.875 C 19.90625 -21.875 22.328125 -17.378906 22.378906 -13.742188 L 6.367188 -13.742188 C 6.566406 -17.480469 9.144531 -21.875 14.347656 -21.875 Z M 14.347656 -21.875 "/></g></g></g><g fill="#020202" fill-opacity="1"><g transform="translate(58.423228, 46.558756)"><g><path d="M 24.046875 0 L 24.046875 -17.125 C 24.046875 -22.429688 21.371094 -25.007812 16.265625 -25.007812 C 12.628906 -25.007812 9.296875 -22.886719 7.578125 -20.863281 L 7.578125 -24.402344 L 3.789062 -24.402344 L 3.789062 0 L 7.578125 0 L 7.578125 -17.832031 C 8.992188 -19.804688 11.820312 -21.621094 14.800781 -21.621094 C 18.085938 -21.621094 20.257812 -20.257812 20.257812 -15.964844 L 20.257812 0 Z M 24.046875 0 "/></g></g></g><g fill="#020202" fill-opacity="1"><g transform="translate(86.263599, 46.558756)"><g><path d="M 9.597656 -3.132812 C 11.570312 -0.605469 14.246094 0.605469 17.125 0.605469 C 23.390625 0.605469 27.9375 -4.09375 27.9375 -12.226562 C 27.9375 -20.359375 23.390625 -25.007812 17.125 -25.007812 C 14.144531 -25.007812 11.46875 -23.695312 9.597656 -21.320312 L 9.597656 -24.402344 L 3.183594 -24.402344 L 3.183594 9.296875 L 9.597656 9.296875 Z M 21.269531 -12.226562 C 21.269531 -7.980469 18.792969 -5.101562 15.105469 -5.101562 C 13.035156 -5.101562 10.660156 -6.367188 9.597656 -7.882812 L 9.597656 -16.519531 C 10.660156 -18.085938 13.035156 -19.296875 15.105469 -19.296875 C 18.792969 -19.296875 21.269531 -16.417969 21.269531 -12.226562 Z M 21.269531 -12.226562 "/></g></g></g><g fill="#020202" fill-opacity="1"><g transform="translate(115.815705, 46.558756)"><g><path d="M 14.5 0.605469 C 22.582031 0.605469 27.433594 -5.253906 27.433594 -12.226562 C 27.433594 -19.148438 22.582031 -25.007812 14.5 -25.007812 C 6.464844 -25.007812 1.617188 -19.148438 1.617188 -12.226562 C 1.617188 -5.253906 6.464844 0.605469 14.5 0.605469 Z M 14.5 -5.101562 C 10.507812 -5.101562 8.285156 -8.386719 8.285156 -12.226562 C 8.285156 -16.015625 10.507812 -19.296875 14.5 -19.296875 C 18.492188 -19.296875 20.765625 -16.015625 20.765625 -12.226562 C 20.765625 -8.386719 18.492188 -5.101562 14.5 -5.101562 Z M 14.5 -5.101562 "/></g></g></g><g fill="#020202" fill-opacity="1"><g transform="translate(144.812131, 46.558756)"><g><path d="M 6.367188 -27.988281 C 8.488281 -27.988281 10.207031 -29.707031 10.207031 -31.828125 C 10.207031 -33.949219 8.488281 -35.667969 6.367188 -35.667969 C 4.292969 -35.667969 2.527344 -33.949219 2.527344 -31.828125 C 2.527344 -29.707031 4.292969 -27.988281 6.367188 -27.988281 Z M 9.597656 0 L 9.597656 -24.402344 L 3.183594 -24.402344 L 3.183594 0 Z M 9.597656 0 "/></g></g></g><g fill="#020202" fill-opacity="1"><g transform="translate(157.592784, 46.558756)"><g><path d="M 26.070312 0 L 26.070312 -17.226562 C 26.070312 -21.976562 23.492188 -25.007812 18.136719 -25.007812 C 14.144531 -25.007812 11.164062 -23.085938 9.597656 -21.21875 L 9.597656 -24.402344 L 3.183594 -24.402344 L 3.183594 0 L 9.597656 0 L 9.597656 -16.417969 C 10.660156 -17.882812 12.628906 -19.296875 15.15625 -19.296875 C 17.882812 -19.296875 19.652344 -18.136719 19.652344 -14.75 L 19.652344 0 Z M 26.070312 0 "/></g></g></g><g fill="#020202" fill-opacity="1"><g transform="translate(186.84179, 46.558756)"><g><path d="M 11.367188 0.605469 C 14.042969 0.605469 15.761719 -0.101562 16.722656 -0.960938 L 15.359375 -5.808594 C 15.003906 -5.457031 14.09375 -5.101562 13.136719 -5.101562 C 11.71875 -5.101562 10.914062 -6.265625 10.914062 -7.78125 L 10.914062 -18.792969 L 15.863281 -18.792969 L 15.863281 -24.402344 L 10.914062 -24.402344 L 10.914062 -31.070312 L 4.445312 -31.070312 L 4.445312 -24.402344 L 0.402344 -24.402344 L 0.402344 -18.792969 L 4.445312 -18.792969 L 4.445312 -6.0625 C 4.445312 -1.71875 6.871094 0.605469 11.367188 0.605469 Z M 11.367188 0.605469 "/></g></g></g><g fill="#020202" fill-opacity="1"><g transform="translate(203.916345, 46.558756)"><g><path d="M 1.617188 -12.226562 C 1.617188 -4.394531 7.222656 0.605469 14.652344 0.605469 C 18.441406 0.605469 22.230469 -0.503906 24.703125 -2.777344 L 21.875 -6.921875 C 20.308594 -5.40625 17.632812 -4.496094 15.359375 -4.496094 C 11.214844 -4.496094 8.738281 -7.074219 8.335938 -10.15625 L 26.472656 -10.15625 L 26.472656 -11.570312 C 26.472656 -19.550781 21.523438 -25.007812 14.246094 -25.007812 C 6.820312 -25.007812 1.617188 -19.296875 1.617188 -12.226562 Z M 14.246094 -19.90625 C 18.492188 -19.90625 20.105469 -16.824219 20.257812 -14.5 L 8.234375 -14.5 C 8.539062 -16.925781 10.253906 -19.90625 14.246094 -19.90625 Z M 14.246094 -19.90625 "/></g></g></g><g fill="#020202" fill-opacity="1"><g transform="translate(231.851919, 46.558756)"><g><path d="M 9.597656 0 L 9.597656 -16.117188 C 10.660156 -17.683594 13.488281 -18.84375 15.609375 -18.84375 C 16.316406 -18.84375 16.925781 -18.792969 17.378906 -18.691406 L 17.378906 -24.957031 C 14.347656 -24.957031 11.316406 -23.238281 9.597656 -21.066406 L 9.597656 -24.402344 L 3.183594 -24.402344 L 3.183594 0 Z M 9.597656 0 "/></g></g></g></g></g><g clip-path="url(#784a18fdfe)"><g clip-path="url(#31b71539a1)"><g clip-path="url(#cdf7cbfc65)"><g transform="matrix(1, 0, 0, 1, 3, 53)"><g clip-path="url(#02d9116fd9)"><g clip-path="url(#c9ab8fe00f)"><g clip-path="url(#f908a489f6)"><g clip-path="url(#f628f35f09)"><path fill="#020202" d="M 47.980469 9.535156 L 20.035156 52.621094 L -6.671875 35.300781 L 21.273438 -7.785156 Z M 47.980469 9.535156 " fill-opacity="1" fill-rule="nonzero"/></g></g></g></g></g></g></g></g><g transform="matrix(1, 0, 0, 1, 0, 64)"><g clip-path="url(#7396f6f5a7)"><g clip-path="url(#697653eb39)"><g fill="#020202" fill-opacity="1"><g transform="translate(-9.510817, 43.657415)"><g><path d="M 45.109375 -20.265625 C 50.992188 -16.128906 54.484375 -11.425781 55.578125 -6.15625 C 56.671875 -0.894531 55.195312 4.617188 51.15625 10.390625 C 47.113281 16.148438 42.425781 19.410156 37.09375 20.171875 C 31.757812 20.929688 26.148438 19.242188 20.265625 15.109375 C 14.359375 10.960938 10.859375 6.269531 9.765625 1.03125 C 8.671875 -4.207031 10.160156 -9.722656 14.234375 -15.515625 C 18.304688 -21.316406 22.992188 -24.59375 28.296875 -25.34375 C 33.597656 -26.101562 39.203125 -24.410156 45.109375 -20.265625 Z M 39.34375 -12.078125 C 36.988281 -13.734375 34.695312 -14.273438 32.46875 -13.703125 C 30.238281 -13.140625 28.273438 -11.648438 26.578125 -9.234375 L 24.34375 -6.046875 C 22.65625 -3.628906 21.925781 -1.28125 22.15625 1 C 22.382812 3.28125 23.675781 5.25 26.03125 6.90625 C 28.375 8.550781 30.664062 9.097656 32.90625 8.546875 C 35.15625 8.003906 37.125 6.523438 38.8125 4.109375 L 41.046875 0.921875 C 42.742188 -1.492188 43.46875 -3.851562 43.21875 -6.15625 C 42.976562 -8.457031 41.6875 -10.429688 39.34375 -12.078125 Z M 39.34375 -12.078125 "/></g></g></g></g></g></g></svg>